<svg width="1200" height="1400" viewBox="0 0 1200 1400" fill="none" xmlns="http://www.w3.org/2000/svg">
  <rect width="1200" height="1400" rx="48" fill="#F6E3D2"/>
  <rect x="84" y="88" width="1032" height="1224" rx="42" fill="#FFF9F2"/>
  <rect x="152" y="150" width="896" height="230" rx="30" fill="#FFE4C8"/>
  <rect x="212" y="212" width="320" height="40" rx="20" fill="#EFC6A3"/>
  <rect x="212" y="278" width="460" height="24" rx="12" fill="#F2D8BF"/>
  <rect x="152" y="440" width="412" height="790" rx="32" fill="#FFF3E8"/>
  <rect x="636" y="440" width="412" height="790" rx="32" fill="#FBF0E6"/>
  <rect x="216" y="520" width="284" height="160" rx="24" fill="#D5ECDC"/>
  <rect x="216" y="734" width="284" height="428" rx="24" fill="#FFFDFC"/>
  <rect x="700" y="520" width="284" height="226" rx="24" fill="#FFE1C2"/>
  <rect x="700" y="798" width="284" height="364" rx="24" fill="#FFF8F1"/>
  <circle cx="842" cy="948" r="88" fill="#E1D4C5"/>
  <ellipse cx="842" cy="982" rx="112" ry="84" fill="#F8F0E6"/>
  <circle cx="802" cy="948" r="10" fill="#574339"/>
  <circle cx="880" cy="948" r="10" fill="#574339"/>
  <path d="M804 1012C830 1034 854 1034 882 1012" stroke="#9A6F5B" stroke-width="10" stroke-linecap="round"/>
</svg>
