<svg width="1600" height="1200" viewBox="0 0 1600 1200" fill="none" xmlns="http://www.w3.org/2000/svg">
  <defs>
    <linearGradient id="bg" x1="140" y1="80" x2="1400" y2="1080" gradientUnits="userSpaceOnUse">
      <stop stop-color="#FFE9D1"/>
      <stop offset="1" stop-color="#F6C095"/>
    </linearGradient>
    <linearGradient id="glass" x1="0" y1="0" x2="1" y2="1">
      <stop stop-color="#FFFFFF" stop-opacity="0.95"/>
      <stop offset="1" stop-color="#FFF7EF" stop-opacity="0.82"/>
    </linearGradient>
  </defs>
  <rect width="1600" height="1200" rx="60" fill="url(#bg)"/>
  <circle cx="276" cy="250" r="140" fill="#FFD2AE" fill-opacity="0.65"/>
  <circle cx="1360" cy="200" r="170" fill="#CDEFD8" fill-opacity="0.62"/>
  <rect x="112" y="144" width="1376" height="912" rx="48" fill="#F9F2EA"/>
  <rect x="170" y="190" width="1260" height="116" rx="28" fill="#FFF9F2"/>
  <rect x="210" y="228" width="420" height="42" rx="21" fill="#F2DFCC"/>
  <rect x="1070" y="224" width="260" height="52" rx="26" fill="#FFD7B4"/>
  <rect x="220" y="370" width="620" height="510" rx="40" fill="url(#glass)"/>
  <rect x="900" y="370" width="310" height="510" rx="38" fill="#FFFDF9"/>
  <rect x="1240" y="370" width="140" height="510" rx="34" fill="#FDE4C8"/>
  <rect x="278" y="438" width="504" height="308" rx="30" fill="#F3B88B"/>
  <rect x="310" y="476" width="440" height="230" rx="24" fill="#FFF6EE"/>
  <rect x="968" y="438" width="174" height="118" rx="24" fill="#FFD8B8"/>
  <rect x="968" y="586" width="174" height="226" rx="24" fill="#FFF4EB"/>
  <rect x="1266" y="436" width="88" height="120" rx="24" fill="#FFE3C5"/>
  <rect x="1266" y="586" width="88" height="224" rx="24" fill="#FFF8F1"/>
  <circle cx="510" cy="593" r="120" fill="#D5C8B8"/>
  <circle cx="492" cy="562" r="50" fill="#F8F0E6"/>
  <circle cx="565" cy="565" r="42" fill="#F8F0E6"/>
  <ellipse cx="527" cy="641" rx="90" ry="72" fill="#F6E9DB"/>
  <circle cx="486" cy="626" r="10" fill="#5A463C"/>
  <circle cx="564" cy="626" r="10" fill="#5A463C"/>
  <ellipse cx="525" cy="664" rx="20" ry="14" fill="#9A6F5B"/>
  <path d="M486 694C511 716 540 716 566 694" stroke="#9A6F5B" stroke-width="10" stroke-linecap="round"/>
  <rect x="220" y="918" width="1160" height="78" rx="28" fill="#FFF8F1"/>
  <rect x="268" y="944" width="280" height="20" rx="10" fill="#F1D6BE"/>
  <rect x="1132" y="936" width="196" height="36" rx="18" fill="#F6B278"/>
  <path d="M1088 502H1118" stroke="#F09056" stroke-width="14" stroke-linecap="round"/>
  <path d="M1088 534H1118" stroke="#F09056" stroke-width="14" stroke-linecap="round"/>
</svg>
