<svg width="1600" height="1100" viewBox="0 0 1600 1100" fill="none" xmlns="http://www.w3.org/2000/svg">
  <defs>
    <linearGradient id="bg" x1="120" y1="70" x2="1450" y2="1040" gradientUnits="userSpaceOnUse">
      <stop stop-color="#C88657"/>
      <stop offset="1" stop-color="#7B4F38"/>
    </linearGradient>
    <linearGradient id="glass" x1="0" y1="0" x2="1" y2="1">
      <stop stop-color="#FFF8F0" stop-opacity="0.96"/>
      <stop offset="1" stop-color="#F3DED0" stop-opacity="0.88"/>
    </linearGradient>
  </defs>
  <rect width="1600" height="1100" fill="url(#bg)"/>
  <rect x="82" y="82" width="1436" height="936" rx="42" fill="#E8D3C3"/>
  <rect x="134" y="128" width="1332" height="144" rx="30" fill="#FDF4EB"/>
  <rect x="190" y="176" width="372" height="34" rx="17" fill="#C9A58C"/>
  <rect x="1180" y="156" width="210" height="86" rx="26" fill="#E7B07E"/>
  <rect x="138" y="332" width="812" height="626" rx="36" fill="url(#glass)"/>
  <rect x="984" y="332" width="478" height="626" rx="36" fill="#F7EAE0"/>
  <rect x="214" y="428" width="660" height="260" rx="28" fill="#B7774F"/>
  <rect x="274" y="492" width="540" height="126" rx="20" fill="#F8EDE2"/>
  <rect x="1036" y="418" width="372" height="148" rx="24" fill="#EBC29C"/>
  <rect x="1036" y="608" width="372" height="290" rx="24" fill="#FFF7F0"/>
  <circle cx="548" cy="664" r="112" fill="#D8CABB"/>
  <ellipse cx="548" cy="702" rx="138" ry="102" fill="#F7EDE2"/>
  <circle cx="498" cy="664" r="12" fill="#59453B"/>
  <circle cx="594" cy="664" r="12" fill="#59453B"/>
  <ellipse cx="548" cy="716" rx="22" ry="16" fill="#926C5B"/>
  <path d="M500 760C530 784 566 784 596 760" stroke="#926C5B" stroke-width="12" stroke-linecap="round"/>
  <rect x="182" y="902" width="1248" height="62" rx="24" fill="#FDF5EE"/>
  <text x="214" y="942" fill="#6E584C" font-family="Segoe UI, Arial, sans-serif" font-size="30" font-weight="700">独立浴台 · 低刺激暖光 · 一宠一位</text>
</svg>
