<svg width="1600" height="1100" viewBox="0 0 1600 1100" fill="none" xmlns="http://www.w3.org/2000/svg">
  <defs>
    <linearGradient id="bg4" x1="140" y1="94" x2="1440" y2="1020" gradientUnits="userSpaceOnUse">
      <stop stop-color="#B68B6C"/>
      <stop offset="1" stop-color="#5F493E"/>
    </linearGradient>
  </defs>
  <rect width="1600" height="1100" fill="url(#bg4)"/>
  <rect x="84" y="88" width="1432" height="924" rx="42" fill="#E4D2C1"/>
  <rect x="136" y="134" width="1328" height="142" rx="30" fill="#FDF3EA"/>
  <rect x="196" y="182" width="394" height="34" rx="17" fill="#C6A088"/>
  <rect x="136" y="330" width="520" height="628" rx="36" fill="#F7EDE2"/>
  <rect x="714" y="330" width="750" height="628" rx="36" fill="#EEE0D0"/>
  <rect x="210" y="412" width="372" height="198" rx="24" fill="#E7BB8F"/>
  <rect x="210" y="660" width="372" height="226" rx="24" fill="#FFF8F1"/>
  <rect x="790" y="410" width="598" height="188" rx="28" fill="#BFD8C6"/>
  <rect x="790" y="648" width="598" height="240" rx="28" fill="#FFF8F1"/>
  <circle cx="1090" cy="752" r="108" fill="#E2D3C5"/>
  <ellipse cx="1090" cy="792" rx="132" ry="96" fill="#F8EFE5"/>
  <circle cx="1042" cy="756" r="11" fill="#5A463C"/>
  <circle cx="1132" cy="756" r="11" fill="#5A463C"/>
  <path d="M1044 820C1072 844 1104 844 1134 820" stroke="#8E6859" stroke-width="12" stroke-linecap="round"/>
  <text x="818" y="892" fill="#6D584C" font-family="Segoe UI, Arial, sans-serif" font-size="30" font-weight="700">耳部清洁 · 修爪细护 · 洗后顺毛</text>
</svg>
