<svg width="1200" height="1400" viewBox="0 0 1200 1400" fill="none" xmlns="http://www.w3.org/2000/svg">
  <defs>
    <linearGradient id="storyBg" x1="80" y1="80" x2="1060" y2="1320" gradientUnits="userSpaceOnUse">
      <stop stop-color="#B78259"/>
      <stop offset="1" stop-color="#6C4E3E"/>
    </linearGradient>
  </defs>
  <rect width="1200" height="1400" fill="url(#storyBg)"/>
  <rect x="72" y="80" width="1056" height="1240" rx="44" fill="#EFE0D2"/>
  <rect x="128" y="136" width="944" height="180" rx="30" fill="#FCF3EA"/>
  <rect x="182" y="188" width="338" height="36" rx="18" fill="#C69E83"/>
  <rect x="182" y="246" width="470" height="24" rx="12" fill="#E2CBB8"/>
  <rect x="128" y="374" width="430" height="404" rx="32" fill="#F8EDE2"/>
  <rect x="642" y="374" width="430" height="404" rx="32" fill="#F6E9DC"/>
  <rect x="128" y="840" width="944" height="390" rx="32" fill="#F9F0E7"/>
  <rect x="190" y="450" width="306" height="250" rx="26" fill="#B97A50"/>
  <rect x="706" y="452" width="304" height="246" rx="26" fill="#C7DECE"/>
  <rect x="198" y="916" width="266" height="240" rx="24" fill="#FFF7EF"/>
  <rect x="526" y="916" width="472" height="240" rx="24" fill="#EBC19B"/>
  <circle cx="790" cy="1038" r="98" fill="#DACBBC"/>
  <ellipse cx="790" cy="1076" rx="124" ry="92" fill="#F8EEE4"/>
  <circle cx="744" cy="1038" r="11" fill="#59453B"/>
  <circle cx="834" cy="1038" r="11" fill="#59453B"/>
  <path d="M746 1100C774 1122 806 1122 836 1100" stroke="#8F6A5A" stroke-width="12" stroke-linecap="round"/>
  <text x="186" y="1188" fill="#6E584D" font-family="Segoe UI, Arial, sans-serif" font-size="28" font-weight="700">到店检查</text>
  <text x="526" y="1188" fill="#6E584D" font-family="Segoe UI, Arial, sans-serif" font-size="28" font-weight="700">洗后反馈</text>
</svg>
