<svg width="1600" height="1100" viewBox="0 0 1600 1100" fill="none" xmlns="http://www.w3.org/2000/svg">
  <defs>
    <linearGradient id="bg2" x1="160" y1="90" x2="1430" y2="1020" gradientUnits="userSpaceOnUse">
      <stop stop-color="#9B806B"/>
      <stop offset="1" stop-color="#56443B"/>
    </linearGradient>
  </defs>
  <rect width="1600" height="1100" fill="url(#bg2)"/>
  <rect x="86" y="82" width="1428" height="936" rx="42" fill="#D6C6B7"/>
  <rect x="138" y="130" width="1324" height="138" rx="30" fill="#F9F0E7"/>
  <rect x="198" y="176" width="414" height="32" rx="16" fill="#B89781"/>
  <rect x="138" y="320" width="432" height="638" rx="36" fill="#F7ECE2"/>
  <rect x="616" y="320" width="846" height="638" rx="36" fill="#EBDDCE"/>
  <rect x="208" y="412" width="292" height="176" rx="24" fill="#B8D2C0"/>
  <rect x="208" y="636" width="292" height="250" rx="24" fill="#FFF7F0"/>
  <rect x="690" y="414" width="700" height="310" rx="30" fill="#CB8A5C"/>
  <rect x="748" y="476" width="584" height="104" rx="20" fill="#F8EDE2"/>
  <rect x="796" y="774" width="476" height="120" rx="22" fill="#FFF7EF"/>
  <circle cx="1020" cy="720" r="116" fill="#DACBBC"/>
  <ellipse cx="1020" cy="766" rx="146" ry="106" fill="#F7EEE4"/>
  <circle cx="970" cy="724" r="12" fill="#58443A"/>
  <circle cx="1066" cy="724" r="12" fill="#58443A"/>
  <path d="M972 790C1002 814 1036 814 1068 790" stroke="#8D6758" stroke-width="12" stroke-linecap="round"/>
  <text x="710" y="896" fill="#6C574B" font-family="Segoe UI, Arial, sans-serif" font-size="30" font-weight="700">低噪烘干 · 造型整理 · 梳理收尾</text>
</svg>
